<?xml version="1.0" encoding="UTF-8" standalone="no"?>
<!-- Created with Inkscape (http://www.inkscape.org/) -->

<svg
   width="24.051992mm"
   height="24.051992mm"
   viewBox="0 0 24.051992 24.051992"
   version="1.1"
   id="svg1"
   xml:space="preserve"
   xmlns="http://www.w3.org/2000/svg"
   xmlns:svg="http://www.w3.org/2000/svg"><defs
     id="defs1" /><circle
     style="fill:#ffffff;stroke-width:2.58946;stroke-opacity:0.231982"
     id="path4"
     cx="12.025997"
     cy="12.025996"
     r="12.025996" /><g
     id="layer2"
     transform="matrix(0.22026646,0,0,0.22026646,-11.369324,-10.223239)"><g
       id="layer3"
       style="display:inline"><g
         id="layer5"
         style="display:none"><circle
           style="fill:#6362ff;fill-opacity:0.443694;stroke-width:3;stroke-opacity:0.231982"
           id="path1"
           r="5.3052187"
           cy="55.749699"
           cx="105.73306" /><circle
           style="fill:#6362ff;fill-opacity:0.443694;stroke-width:2.95945;stroke-opacity:0.231982"
           id="path2"
           r="3.6368403"
           cy="63.073208"
           cx="124.69515" /><circle
           style="fill:#6362ff;fill-opacity:0.443694;stroke-width:2.56059;stroke-opacity:0.231982"
           id="path3"
           r="10.170318"
           cy="57.176777"
           cx="118.0843" /><circle
           style="fill:#6362ff;fill-opacity:0.443694;stroke-width:10.5021;stroke-opacity:0.231982"
           id="path5"
           r="46.66317"
           cy="87.701866"
           cx="165.77098" /><circle
           style="fill:#6362ff;fill-opacity:0.443694;stroke-width:6.60105;stroke-opacity:0.231982"
           id="path4-5-3"
           cx="105.73306"
           cy="110.72633"
           r="37.970234" /><circle
           style="fill:#6362ff;fill-opacity:0.443694;stroke-width:3;stroke-opacity:0.231982"
           id="circle1"
           r="5.3052187"
           cy="55.749699"
           cx="-105.73306"
           transform="scale(-1,1)" /><circle
           style="fill:#6362ff;fill-opacity:0.443694;stroke-width:2.95945;stroke-opacity:0.231982"
           id="circle2"
           r="3.6368403"
           cy="63.073208"
           cx="-86.770714"
           transform="scale(-1,1)" /><circle
           style="fill:#6362ff;fill-opacity:0.443694;stroke-width:2.56059;stroke-opacity:0.231982"
           id="circle3"
           r="10.170318"
           cy="57.176777"
           cx="-93.381645"
           transform="scale(-1,1)" /><circle
           style="fill:#6362ff;fill-opacity:0.443694;stroke-width:10.5021;stroke-opacity:0.231982"
           id="circle4"
           r="46.66317"
           cy="87.701866"
           cx="-45.694489"
           transform="scale(-1,1)" /><circle
           style="fill:#6362ff;fill-opacity:0.443694;stroke-width:6.60105;stroke-opacity:0.231982"
           id="circle5"
           cx="-105.73306"
           cy="110.72633"
           r="37.970234"
           transform="scale(-1,1)" /></g><g
         id="layer6"><circle
           style="fill:#000000;fill-opacity:1;stroke-width:2.95945;stroke-opacity:0.231982"
           id="path2-6"
           r="3.6368403"
           cy="63.073208"
           cx="124.69515" /><circle
           style="fill:#000000;fill-opacity:1;stroke-width:3;stroke-opacity:0.231982"
           id="circle1-2"
           r="5.3052187"
           cy="55.749699"
           cx="-105.73306"
           transform="scale(-1,1)" /><circle
           style="fill:#000000;fill-opacity:1;stroke-width:2.95945;stroke-opacity:0.231982"
           id="circle2-7"
           r="3.6368403"
           cy="63.073208"
           cx="-86.770714"
           transform="scale(-1,1)" /><path
           d="m 102.94799,60.211611 a 10.170318,10.170318 0 0 1 -9.566345,7.135484 10.170318,10.170318 0 0 1 -4.642094,-1.27538 3.6368403,3.6368403 0 0 1 -1.456242,0.50075 46.66317,46.66317 0 0 1 3.562573,9.38806 37.970234,37.970234 0 0 1 14.886948,-3.20446 37.970234,37.970234 0 0 1 15.08642,3.15433 46.66317,46.66317 0 0 1 3.56102,-9.28471 3.6368403,3.6368403 0 0 1 -1.65468,-0.55397 10.170318,10.170318 0 0 1 -4.64157,1.27538 10.170318,10.170318 0 0 1 -9.56686,-7.134968 5.3052187,5.3052187 0 0 1 -2.78433,0.842326 5.3052187,5.3052187 0 0 1 -2.78484,-0.842842 z"
           style="fill:#000000;fill-opacity:1;stroke-width:3;stroke-opacity:0.231982"
           id="path25" /></g></g><g
       id="layer4"><g
         id="layer7"
         style="display:none"><circle
           style="display:inline;fill:#6362ff;fill-opacity:0.443694;stroke-width:6.60105;stroke-opacity:0.231982"
           id="path4-5-4-9"
           cx="105.73283"
           cy="116.54713"
           r="37.970234" /><circle
           style="display:inline;fill:#6362ff;fill-opacity:0.443694;stroke-width:3;stroke-opacity:0.231982"
           id="path26-3-7"
           cx="121.91926"
           cy="94.352715"
           r="2.9640677" /><circle
           style="display:inline;fill:#6362ff;fill-opacity:0.443694;stroke-width:2.34968;stroke-opacity:0.231982"
           id="path27-9-3"
           cx="117.25205"
           cy="102.35339"
           r="12.812202" /><circle
           style="fill:#6362ff;fill-opacity:0.443694;stroke-width:1.66811;stroke-opacity:0.231982"
           id="path28-0-7"
           cx="113.57768"
           cy="106.44051"
           r="10.703623" /><circle
           style="fill:#6362ff;fill-opacity:0.443694;stroke-width:3;stroke-opacity:0.231982"
           id="path29-5-5"
           cx="121.15685"
           cy="123.59853"
           r="10.085462" /><circle
           style="fill:#6362ff;fill-opacity:0.443694;stroke-width:0.904891;stroke-opacity:0.231982"
           id="path30-6-0"
           cx="121.98579"
           cy="84.269836"
           r="5.1118069" /><circle
           style="fill:#6362ff;fill-opacity:0.443694;stroke-width:3;stroke-opacity:0.231982"
           id="path31-3-2"
           cx="134.46152"
           cy="117.08963"
           r="4.9677229" /><circle
           style="fill:#6362ff;fill-opacity:0.443694;stroke-width:3;stroke-opacity:0.231982"
           id="path32-6-1"
           cx="139.44711"
           cy="113.04599"
           r="4.8776073" /><circle
           style="display:inline;fill:#6362ff;fill-opacity:0.443694;stroke-width:3;stroke-opacity:0.231982"
           id="path33-3-8"
           cx="121.02927"
           cy="94.518944"
           r="7.667573" /><circle
           style="fill:#6362ff;fill-opacity:0.443694;stroke-width:2.70999;stroke-opacity:0.231982"
           id="path34-0-7"
           cx="104.90103"
           cy="157.74977"
           r="31.434523" /></g><g
         id="layer8"><path
           id="rect528"
           style="display:none;fill:#99c1f1;stroke-width:0.941977;stop-color:#000000"
           d="m 55.059524,121.43528 c 0,-13.67563 16.239034,-24.157447 45.020236,-28.61073 l 0.23527,15.89847 c -43.793444,5.8638 -45.255506,17.37149 -45.255506,36.65093 z" /><path
           id="rect528-3"
           style="display:none;fill:#99c1f1;stroke-width:1.01406;stop-color:#000000"
           d="m 71.298558,170.19601 c 0,-18.96415 66.103662,-25.62133 85.581242,-31.44228 v 13.02159 c 0,3.60618 -85.581242,21.17305 -85.581242,41.75877 z" /><path
           id="path40"
           style="display:inline;fill:#000000;fill-opacity:1;stroke-width:6.60105;stroke-opacity:0.231982"
           d="m 105.73308,78.577116 c -20.970158,-3.1e-5 -37.970037,16.999616 -37.970291,37.969774 -1.5e-5,9.74951 3.678088,18.63752 9.717753,25.36124 a 29.884853,29.884853 0 0 0 -0.02222,0.0589 h 54.092818 a 29.884853,29.884853 0 0 0 -4.88962,-7.56182 c -7.56743,-9.3674 -29.964792,-24.04819 -21.76043,-33.79018 -0.90248,15.32239 14.79129,13.88936 19.04742,13.21263 5.53578,1.76721 5.54908,5.76995 8.16849,7.54682 1.10818,0.96749 3.35635,1.28729 6.43062,-0.74155 1.8365,-1.32161 2.37728,-2.04503 4.31394,-3.75275 2.56559,-2.96638 1.72633,-5.39208 1.44643,-5.93555 -0.67957,-1.20008 -1.32447,-1.30803 -2.40037,-2.01848 -1.93737,-3.23348 -9.50571,-11.609366 -12.71809,-14.286469 -0.39973,-4.748602 -4.30561,-8.056768 -8.88318,-8.948807 -0.94971,-0.851572 -1.94755,-1.611632 -3.23494,-2.089795 0.52176,-1.202247 1.76652,-2.464097 0.94051,-2.89233 -1.88887,-0.979269 -7.03585,-2.13159 -12.27832,-2.131653 z m 16.18609,12.811621 a 2.9640677,2.9640677 0 0 1 2.96416,2.96416 2.9640677,2.9640677 0 0 1 -2.96416,2.963644 2.9640677,2.9640677 0 0 1 -2.96416,-2.963644 2.9640677,2.9640677 0 0 1 2.96416,-2.96416 z" /><path
           id="rect528-3-7"
           style="display:none;fill:#1a5fb4;stroke-width:1.01406;stop-color:#000000"
           d="m 91.373549,114.83842 c 24.332411,-0.33966 65.506251,17.2492 65.506251,23.91531 v 13.02159 c 0,-3.65407 -30.21828,-16.84092 -65.937797,-19.7565 z" /><path
           id="rect528-3-7-5"
           style="display:none;fill:#1a5fb4;stroke-width:0.844681;stop-color:#000000"
           d="m 55.059524,142.36238 c 0,23.11775 86.834196,35.68252 86.834196,49.01926 l 0.16898,-16.80055 c 0,-14.90184 -87.003176,-26.75562 -87.003176,-55.48184 z" /></g></g><g
       id="layer9"
       style="display:inline"><path
         style="display:none;fill:#6362ff;fill-opacity:0.443694;stroke-width:3;stroke-opacity:0.231982"
         d="m 72.734699,141.31789 c -29.833404,23.71587 -3.54802,44.62235 8.973696,51.50786 4.082901,-2.81019 7.595831,-5.83312 10.343735,-7.63866 -22.766281,-14.67502 -27.159468,-26.26451 -19.317431,-43.8692 z"
         id="path41" /><path
         style="display:none;fill:#6362ff;fill-opacity:0.443694;stroke-width:3;stroke-opacity:0.231982"
         d="m 136.83302,140.12942 c 13.78586,25.87718 -22.54501,36.49801 -39.15094,47.61297 -13.184189,8.82467 -38.66355,27.05827 -25.666969,40.08099 0.128363,-13.96855 25.072691,-23.38895 50.560919,-34.99763 17.55154,-7.9939 46.05623,-23.37739 14.25699,-52.69633 z"
         id="path41-0" /></g></g></svg>
