<?xml version="1.0" encoding="UTF-8" standalone="no"?>
<!-- Created with Inkscape (http://www.inkscape.org/) -->

<svg
   width="24.051992mm"
   height="24.051992mm"
   viewBox="0 0 24.051992 24.051992"
   version="1.1"
   id="svg1"
   xml:space="preserve"
   xmlns="http://www.w3.org/2000/svg"
   xmlns:svg="http://www.w3.org/2000/svg"><defs
     id="defs1" /><circle
     style="fill:#ffffff;stroke-width:2.58946;stroke-opacity:0.231982"
     id="path4"
     cx="12.025996"
     cy="12.025996"
     r="12.025996" /><g
     id="layer2"
     style="display:inline"
     transform="matrix(0.47493609,0,0,0.47493609,-38.19039,-17.991153)"><g
       id="layer3"
       style="display:inline"><g
         id="layer5"
         style="display:none"><circle
           style="fill:#6362ff;fill-opacity:0.443694;stroke-width:3;stroke-opacity:0.231982"
           id="path1"
           r="5.3052187"
           cy="55.749699"
           cx="105.73306" /><circle
           style="fill:#6362ff;fill-opacity:0.443694;stroke-width:2.95945;stroke-opacity:0.231982"
           id="path2"
           r="3.6368403"
           cy="63.073208"
           cx="124.69515" /><circle
           style="fill:#6362ff;fill-opacity:0.443694;stroke-width:2.56059;stroke-opacity:0.231982"
           id="path3"
           r="10.170318"
           cy="57.176777"
           cx="118.0843" /><circle
           style="fill:#6362ff;fill-opacity:0.443694;stroke-width:10.5021;stroke-opacity:0.231982"
           id="path5"
           r="46.66317"
           cy="87.701866"
           cx="165.77098" /><circle
           style="fill:#6362ff;fill-opacity:0.443694;stroke-width:6.60105;stroke-opacity:0.231982"
           id="path4-5-3"
           cx="105.73306"
           cy="110.72633"
           r="37.970234" /><circle
           style="fill:#6362ff;fill-opacity:0.443694;stroke-width:3;stroke-opacity:0.231982"
           id="circle1"
           r="5.3052187"
           cy="55.749699"
           cx="-105.73306"
           transform="scale(-1,1)" /><circle
           style="fill:#6362ff;fill-opacity:0.443694;stroke-width:2.95945;stroke-opacity:0.231982"
           id="circle2"
           r="3.6368403"
           cy="63.073208"
           cx="-86.770714"
           transform="scale(-1,1)" /><circle
           style="fill:#6362ff;fill-opacity:0.443694;stroke-width:2.56059;stroke-opacity:0.231982"
           id="circle3"
           r="10.170318"
           cy="57.176777"
           cx="-93.381645"
           transform="scale(-1,1)" /><circle
           style="fill:#6362ff;fill-opacity:0.443694;stroke-width:10.5021;stroke-opacity:0.231982"
           id="circle4"
           r="46.66317"
           cy="87.701866"
           cx="-45.694489"
           transform="scale(-1,1)" /><circle
           style="fill:#6362ff;fill-opacity:0.443694;stroke-width:6.60105;stroke-opacity:0.231982"
           id="circle5"
           cx="-105.73306"
           cy="110.72633"
           r="37.970234"
           transform="scale(-1,1)" /></g><g
         id="layer6"><circle
           style="fill:#000000;fill-opacity:1;stroke-width:2.95945;stroke-opacity:0.231982"
           id="path2-6"
           r="3.6368403"
           cy="63.073208"
           cx="124.69515" /><circle
           style="fill:#000000;fill-opacity:1;stroke-width:3;stroke-opacity:0.231982"
           id="circle1-2"
           r="5.3052187"
           cy="55.749699"
           cx="-105.73306"
           transform="scale(-1,1)" /><circle
           style="fill:#000000;fill-opacity:1;stroke-width:2.95945;stroke-opacity:0.231982"
           id="circle2-7"
           r="3.6368403"
           cy="63.073208"
           cx="-86.770714"
           transform="scale(-1,1)" /><path
           d="m 102.94799,60.211611 a 10.170318,10.170318 0 0 1 -9.566345,7.135484 10.170318,10.170318 0 0 1 -4.642094,-1.27538 3.6368403,3.6368403 0 0 1 -1.456242,0.50075 46.66317,46.66317 0 0 1 3.562573,9.38806 37.970234,37.970234 0 0 1 14.886948,-3.20446 37.970234,37.970234 0 0 1 15.08642,3.15433 46.66317,46.66317 0 0 1 3.56102,-9.28471 3.6368403,3.6368403 0 0 1 -1.65468,-0.55397 10.170318,10.170318 0 0 1 -4.64157,1.27538 10.170318,10.170318 0 0 1 -9.56686,-7.134968 5.3052187,5.3052187 0 0 1 -2.78433,0.842326 5.3052187,5.3052187 0 0 1 -2.78484,-0.842842 z"
           style="fill:#000000;fill-opacity:1;stroke-width:3;stroke-opacity:0.231982"
           id="path25" /></g></g></g></svg>
